<svg xmlns="http://www.w3.org/2000/svg" viewBox="0 0 51.72 59.29">
  <title>sj-logo-icon-v1</title>
  <g id="f1bb2710-77d4-487b-b3d6-66a264c303f0" data-name="Layer 2">
    <g id="bcd33a99-29c3-45c2-9a67-7af26df60dc6" data-name="Layer 1">
      <path
        d="M43.51,33.15,23.6,47.59a3.73,3.73,0,0,1-4.08,0L.84,34a1.72,1.72,0,0,1,0-3L8.11,25.8s7.36,5.43,9.69,7c.77.53,3.47-.4,4.19-.66a3.51,3.51,0,0,0,2.19-.61l10.61-7.7.08.06,8.64,6.26A1.72,1.72,0,0,1,43.51,33.15Z"
        style="fill:#55ccd4"/>
      <path
        d="M42.63,45.51,24,58.65a4.06,4.06,0,0,1-4.37,0L.9,45.51a1.77,1.77,0,0,1,0-3.08L4.43,40,19.58,50.62a4.06,4.06,0,0,0,4.37,0L39.11,40l3.52,2.48A1.77,1.77,0,0,1,42.63,45.51Z"
        style="fill:#fc8890"/>
      <path
        d="M45.59,41.25l-4-2.72,5.67-4.83,4,2.59c.79.47.68,1.89-.41,2.74l-2.21,1.83A2.6,2.6,0,0,1,45.59,41.25Z"
        style="fill:#fc8890"/>
      <path
        d="M44.09,17.13,36.83,22.4s-7.12-5.31-10.44-7.58c-1.09-.74-3.52,1-3.72,1.2a3.56,3.56,0,0,1,2.15.61l10,7.24-10.61,7.7a3.51,3.51,0,0,1-2.19.61,3.41,3.41,0,0,1-1.86-.61l-10-7.23h0L10,24.2,1.43,18a1.72,1.72,0,0,1,0-2.95L21.34.61a3.71,3.71,0,0,1,4.07,0L44.09,14.17A1.72,1.72,0,0,1,44.09,17.13Z"
        style="fill:#fc8890"/>
    </g>
  </g>
</svg>
